<svg width="132" height="132" viewBox="0 0 132 132" fill="none" xmlns="http://www.w3.org/2000/svg">
<rect width="132" height="132" fill="white"/>
<path fill-rule="evenodd" clip-rule="evenodd" d="M13 57.6892H119.797V88.5986H100.576C99.1211 84.1854 94.9649 81 90.0646 81C83.9538 81 79 85.9538 79 92.0646C79 98.1755 83.9538 103.129 90.0646 103.129C94.7883 103.129 98.8205 100.169 100.408 96.003H119.797V124.942H13V57.6892Z" fill="black"/>
<path d="M17.7179 83.6181H26.8401V87.0296H21.1793V90.3661H26.8401V93.7275H21.1793V102H17.7179V83.6181ZM38.649 83.1558C41.2482 83.1558 43.4808 84.0972 45.3469 85.9799C47.2213 87.8627 48.1585 90.1578 48.1585 92.8653C48.1585 95.5478 47.2338 97.8179 45.3844 99.6757C43.5433 101.533 41.3065 102.462 38.6739 102.462C35.9165 102.462 33.6255 101.508 31.8011 99.6007C29.9766 97.693 29.0644 95.427 29.0644 92.8028C29.0644 91.045 29.4893 89.4289 30.339 87.9543C31.1887 86.4798 32.355 85.3134 33.8379 84.4554C35.3291 83.589 36.9328 83.1558 38.649 83.1558ZM38.6115 86.5797C36.912 86.5797 35.4833 87.1712 34.3253 88.3542C33.1673 89.5372 32.5883 91.0409 32.5883 92.8653C32.5883 94.898 33.3173 96.5059 34.7751 97.6888C35.9081 98.6135 37.2077 99.0759 38.6739 99.0759C40.3318 99.0759 41.7438 98.4761 42.9101 97.2764C44.0765 96.0768 44.6596 94.5981 44.6596 92.8403C44.6596 91.0908 44.0723 89.6121 42.8976 88.4042C41.723 87.1879 40.2943 86.5797 38.6115 86.5797ZM61.0921 86.1174L58.5054 88.4042C57.5973 87.1379 56.6726 86.5048 55.7312 86.5048C55.273 86.5048 54.8981 86.6297 54.6066 86.8796C54.315 87.1212 54.1692 87.3961 54.1692 87.7044C54.1692 88.0126 54.2733 88.3042 54.4816 88.5791C54.7648 88.9457 55.6188 89.7329 57.0433 90.9409C58.3762 92.0572 59.1843 92.7612 59.4676 93.0527C60.1757 93.7692 60.6755 94.4565 60.9671 95.1146C61.267 95.7644 61.417 96.4767 61.417 97.2515C61.417 98.7593 60.8963 100.005 59.855 100.988C58.8136 101.971 57.4557 102.462 55.7812 102.462C54.4733 102.462 53.332 102.142 52.3573 101.5C51.3909 100.859 50.562 99.8507 49.8705 98.4761L52.8071 96.7016C53.6902 98.3261 54.7065 99.1384 55.8562 99.1384C56.456 99.1384 56.96 98.9634 57.3682 98.6135C57.7764 98.2636 57.9805 97.8596 57.9805 97.4014C57.9805 96.9849 57.8264 96.5683 57.5182 96.1518C57.2099 95.7353 56.531 95.0979 55.4813 94.2399C53.4819 92.607 52.1906 91.3491 51.6075 90.466C51.0243 89.5746 50.7327 88.6874 50.7327 87.8044C50.7327 86.5297 51.2159 85.4384 52.1823 84.5304C53.157 83.614 54.3566 83.1558 55.7812 83.1558C56.6976 83.1558 57.5682 83.3682 58.3929 83.7931C59.226 84.218 60.1257 84.9927 61.0921 86.1174ZM74.413 86.1174L71.8263 88.4042C70.9182 87.1379 69.9935 86.5048 69.0521 86.5048C68.5939 86.5048 68.2191 86.6297 67.9275 86.8796C67.6359 87.1212 67.4901 87.3961 67.4901 87.7044C67.4901 88.0126 67.5942 88.3042 67.8025 88.5791C68.0858 88.9457 68.9397 89.7329 70.3642 90.9409C71.6972 92.0572 72.5052 92.7612 72.7885 93.0527C73.4966 93.7692 73.9964 94.4565 74.288 95.1146C74.5879 95.7644 74.7379 96.4767 74.7379 97.2515C74.7379 98.7593 74.2172 100.005 73.1759 100.988C72.1345 101.971 70.7766 102.462 69.1021 102.462C67.7942 102.462 66.6529 102.142 65.6782 101.5C64.7118 100.859 63.8829 99.8507 63.1914 98.4761L66.128 96.7016C67.0111 98.3261 68.0274 99.1384 69.1771 99.1384C69.7769 99.1384 70.2809 98.9634 70.6891 98.6135C71.0973 98.2636 71.3014 97.8596 71.3014 97.4014C71.3014 96.9849 71.1473 96.5683 70.8391 96.1518C70.5308 95.7353 69.8519 95.0979 68.8022 94.2399C66.8028 92.607 65.5115 91.3491 64.9284 90.466C64.3452 89.5746 64.0537 88.6874 64.0537 87.8044C64.0537 86.5297 64.5368 85.4384 65.5032 84.5304C66.4779 83.614 67.6776 83.1558 69.1021 83.1558C70.0185 83.1558 70.8891 83.3682 71.7138 83.7931C72.5469 84.218 73.4466 84.9927 74.413 86.1174Z" fill="white"/>
<path d="M72.2367 11.3093C66.696 11.3093 62.2138 15.8257 62.2138 21.4087C62.2138 26.9916 66.696 31.508 72.2367 31.508C77.7773 31.508 82.2595 26.9916 82.2595 21.4087C82.2595 15.8257 77.7773 11.3093 72.2367 11.3093ZM72.2367 27.5447C69.0743 27.5447 66.5131 24.7927 66.5131 21.3955C66.5131 17.9983 69.0743 15.2464 72.2367 15.2464C75.399 15.2464 77.9603 17.9983 77.9603 21.3955C77.9603 24.7927 75.399 27.5447 72.2367 27.5447ZM62.9195 34.2468H58.7117C58.5549 34.2468 58.3981 34.339 58.3458 34.497L55.2488 41.5415L52.1518 34.497C52.0865 34.3522 51.9427 34.2468 51.7859 34.2468H47.5781C47.552 34.2468 47.5389 34.2732 47.5389 34.2995L52.9751 46.2818C53.1057 46.5583 53.1711 46.8743 53.1711 47.1772V53.5765H57.3527V47.1376C57.3527 46.8348 57.418 46.5188 57.5487 46.2423L62.9587 34.2995C62.9587 34.2732 62.9456 34.2468 62.9195 34.2468ZM104.344 31.0735H114.223V26.9785H104.344V23.0678H113.4V19.2229H104.344V15.8257H114.223V11.7307H104.344H100.855H100.214V31.0735H100.855H104.344V31.0735ZM33.0339 34.2468H32.3936V53.5896H33.0339H36.523H46.4151V49.4946H36.536V45.5839H45.5919V41.739H36.536V38.3419H46.4151V34.2468H36.536H33.0339V34.2468ZM93.8374 19.8681L93.9419 22.8702L93.9289 23.2784L88.2053 12.073C88.1007 11.8624 87.8786 11.7307 87.6433 11.7307H83.9583V31.0735H88.0223V22.3699L87.9439 19.6969L88.9762 21.9354L93.7067 30.8628C93.772 30.9945 93.9158 31.0735 94.0595 31.0735H97.9014V11.7307H93.8374V19.8681ZM72.2367 33.786C66.696 33.786 62.2138 38.3024 62.2138 43.8853C62.2138 49.4683 66.696 53.9847 72.2367 53.9847C77.7773 53.9847 82.2595 49.4683 82.2595 43.8853C82.2595 38.3155 77.7773 33.786 72.2367 33.786ZM72.2367 50.0345C69.0743 50.0345 66.5131 47.2825 66.5131 43.8853C66.5131 40.4881 69.0743 37.7362 72.2367 37.7362C75.399 37.7362 77.9603 40.4881 77.9603 43.8853C77.9603 47.2825 75.399 50.0345 72.2367 50.0345ZM93.8374 42.3579L93.9419 45.3601L93.9289 45.7682L88.2053 34.5497C88.1007 34.339 87.8786 34.2073 87.6433 34.2073H83.9583V53.5501H88.0223V44.8465L87.9439 42.1736L88.9762 44.412L93.7067 53.3395C93.772 53.4711 93.9158 53.5501 94.0595 53.5501H97.9014V34.2073H93.8374V42.3579ZM106.552 34.2468H100.201V53.5633H106.552C111.766 53.5633 116 49.2444 116 43.8985C116 38.5657 111.779 34.2468 106.552 34.2468ZM106.552 49.6394H104.396V38.1575H106.552C109.388 38.1575 111.701 40.7252 111.701 43.8985C111.701 47.0718 109.401 49.6394 106.552 49.6394ZM27.9898 43.3191C29.3358 42.4896 30.2505 40.8963 30.2505 39.0792C30.2505 36.2219 27.6501 34.2337 25.0366 34.2337H21.1816H17V53.5896H20.3584H21.1816H25.2326C27.9506 53.5896 30.7863 51.2854 30.7863 48.2042C30.7863 45.9394 29.6494 44.1355 27.9898 43.3191ZM21.1816 42.0682V37.723H24.0565C25.1934 37.723 26.1081 38.6974 26.1081 39.8956C26.1081 41.0938 25.1934 42.0682 24.0565 42.0682H21.1816ZM24.5008 50.0871H21.1816V49.6526V45.5444H24.5008C25.6377 45.5444 26.5524 46.5583 26.5524 47.8223C26.5524 49.0732 25.6377 50.0871 24.5008 50.0871Z" fill="black"/>
</svg>
